<?xml version="1.0" encoding="utf-8"?>
<!-- Generator: Adobe Illustrator 23.0.3, SVG Export Plug-In . SVG Version: 6.00 Build 0)  -->
<svg version="1.1" id="Layer_1" xmlns="http://www.w3.org/2000/svg" xmlns:xlink="http://www.w3.org/1999/xlink" x="0px" y="0px"
	 viewBox="0 0 284.15 107.62" enable-background="new 0 0 284.15 107.62" xml:space="preserve">
<g>
	<path fill="#242424" d="M7.34,95.64c-0.7-0.31-1.32-0.72-1.84-1.25c-0.53-0.53-0.94-1.14-1.25-1.84c-0.31-0.7-0.46-1.46-0.46-2.28
		c0-0.82,0.15-1.58,0.46-2.28c0.31-0.7,0.72-1.32,1.25-1.84c0.53-0.53,1.14-0.94,1.84-1.25c0.7-0.31,1.46-0.46,2.28-0.46h26.62
		c0.58,0,1.08,0.2,1.49,0.61c0.41,0.41,0.61,0.91,0.61,1.49c0,0.59-0.2,1.08-0.61,1.49c-0.41,0.41-0.91,0.61-1.49,0.61H9.53
		c-0.44,0-0.83,0.15-1.16,0.46c-0.34,0.31-0.5,0.69-0.5,1.16c0,0.44,0.17,0.82,0.5,1.14c0.34,0.32,0.72,0.48,1.16,0.48h24.25
		c0.82,0,1.59,0.15,2.3,0.46c0.72,0.31,1.34,0.72,1.86,1.25s0.94,1.15,1.25,1.86c0.31,0.72,0.46,1.48,0.46,2.3
		c0,0.82-0.15,1.58-0.46,2.28c-0.31,0.7-0.72,1.32-1.25,1.84c-0.53,0.53-1.15,0.94-1.86,1.23c-0.72,0.29-1.48,0.44-2.3,0.44H7.21
		c-0.58,0-1.08-0.2-1.49-0.61c-0.41-0.41-0.61-0.91-0.61-1.49c0-0.58,0.2-1.08,0.61-1.49c0.41-0.41,0.91-0.61,1.49-0.61h26.75
		c0.44,0,0.82-0.15,1.14-0.46c0.32-0.31,0.48-0.68,0.48-1.12c0-0.47-0.16-0.86-0.48-1.18c-0.32-0.32-0.7-0.48-1.14-0.48H9.62
		C8.8,96.1,8.04,95.95,7.34,95.64z"/>
	<path fill="#242424" d="M54.17,102.94c-0.41,0.41-0.91,0.61-1.49,0.61c-0.58,0-1.08-0.2-1.49-0.61c-0.41-0.41-0.61-0.91-0.61-1.49
		V86.54c0-0.58,0.2-1.08,0.61-1.49c0.41-0.41,0.91-0.61,1.49-0.61c0.58,0,1.08,0.2,1.49,0.61c0.41,0.41,0.61,0.91,0.61,1.49v14.91
		C54.78,102.03,54.58,102.53,54.17,102.94z"/>
	<path fill="#242424" d="M76.4,93.99c0-0.58,0.2-1.08,0.61-1.49c0.41-0.41,0.91-0.61,1.49-0.61H95.3c0.73,0,1.42,0.14,2.06,0.42
		c0.64,0.28,1.21,0.66,1.69,1.14s0.85,1.05,1.12,1.71c0.26,0.66,0.39,1.35,0.39,2.08v0.96c0,0.73-0.13,1.43-0.39,2.08
		c-0.26,0.66-0.64,1.23-1.12,1.71s-1.05,0.86-1.69,1.14s-1.33,0.42-2.06,0.42H72.45c-1.2,0-2.27-0.29-3.2-0.88
		c-0.94-0.58-1.73-1.34-2.39-2.26s-1.16-1.95-1.51-3.09c-0.35-1.14-0.53-2.25-0.53-3.33c0-1.11,0.18-2.23,0.55-3.35
		c0.37-1.13,0.9-2.15,1.6-3.07c0.7-0.92,1.55-1.67,2.54-2.26c0.99-0.58,2.12-0.88,3.38-0.88h25.56c0.58,0,1.08,0.2,1.49,0.61
		c0.41,0.41,0.61,0.91,0.61,1.49c0,0.59-0.21,1.08-0.61,1.49c-0.41,0.41-0.91,0.61-1.49,0.61h-24.6c-1.02,0-1.85,0.18-2.48,0.55
		c-0.63,0.37-1.13,0.81-1.49,1.34c-0.37,0.53-0.61,1.1-0.75,1.73c-0.13,0.63-0.2,1.21-0.2,1.73c0,0.53,0.07,1.1,0.2,1.73
		c0.13,0.63,0.38,1.21,0.75,1.73c0.37,0.53,0.86,0.97,1.49,1.34c0.63,0.37,1.45,0.55,2.48,0.55h21.27c0.35,0,0.66-0.16,0.94-0.48
		c0.28-0.32,0.42-0.7,0.42-1.14s-0.12-0.82-0.37-1.14c-0.25-0.32-0.58-0.48-0.99-0.48H78.51c-0.59,0-1.08-0.2-1.49-0.61
		C76.6,95.08,76.4,94.58,76.4,93.99z"/>
	<path fill="#242424" d="M114.15,95.64c-0.7-0.31-1.32-0.72-1.84-1.25c-0.53-0.53-0.94-1.14-1.25-1.84
		c-0.31-0.7-0.46-1.46-0.46-2.28c0-0.82,0.15-1.58,0.46-2.28c0.31-0.7,0.72-1.32,1.25-1.84c0.53-0.53,1.14-0.94,1.84-1.25
		c0.7-0.31,1.46-0.46,2.28-0.46h26.62c0.58,0,1.08,0.2,1.49,0.61c0.41,0.41,0.61,0.91,0.61,1.49c0,0.59-0.21,1.08-0.61,1.49
		c-0.41,0.41-0.91,0.61-1.49,0.61h-26.7c-0.44,0-0.83,0.15-1.16,0.46c-0.34,0.31-0.5,0.69-0.5,1.16c0,0.44,0.17,0.82,0.5,1.14
		c0.34,0.32,0.72,0.48,1.16,0.48h24.25c0.82,0,1.59,0.15,2.3,0.46c0.72,0.31,1.34,0.72,1.86,1.25s0.94,1.15,1.25,1.86
		c0.31,0.72,0.46,1.48,0.46,2.3c0,0.82-0.15,1.58-0.46,2.28c-0.31,0.7-0.72,1.32-1.25,1.84c-0.53,0.53-1.15,0.94-1.86,1.23
		c-0.72,0.29-1.48,0.44-2.3,0.44h-26.57c-0.58,0-1.08-0.2-1.49-0.61c-0.41-0.41-0.61-0.91-0.61-1.49c0-0.58,0.2-1.08,0.61-1.49
		c0.41-0.41,0.91-0.61,1.49-0.61h26.75c0.44,0,0.82-0.15,1.14-0.46s0.48-0.68,0.48-1.12c0-0.47-0.16-0.86-0.48-1.18
		c-0.32-0.32-0.7-0.48-1.14-0.48h-24.34C115.62,96.1,114.86,95.95,114.15,95.64z"/>
	<path fill="#242424" d="M191.33,93.99c0,1.11-0.18,2.23-0.55,3.35c-0.37,1.13-0.9,2.15-1.6,3.07c-0.7,0.92-1.55,1.67-2.54,2.26
		c-0.99,0.58-2.12,0.88-3.38,0.88h-19.99c-1.2-0.06-2.27-0.39-3.2-0.99c-0.94-0.6-1.73-1.35-2.39-2.26
		c-0.66-0.91-1.16-1.91-1.51-3.03c-0.35-1.11-0.53-2.21-0.53-3.29c0-1.11,0.18-2.23,0.55-3.35c0.37-1.13,0.9-2.15,1.6-3.07
		c0.7-0.92,1.55-1.67,2.54-2.26c0.99-0.58,2.12-0.88,3.38-0.88h19.99c1.2,0.06,2.26,0.39,3.2,0.99c0.93,0.6,1.73,1.35,2.39,2.26
		c0.66,0.91,1.16,1.92,1.51,3.03C191.15,91.82,191.33,92.91,191.33,93.99z M184.79,98.8c0.64-0.37,1.15-0.81,1.51-1.34
		c0.37-0.53,0.61-1.1,0.75-1.73c0.13-0.63,0.2-1.21,0.2-1.73c0-0.53-0.07-1.1-0.2-1.73c-0.13-0.63-0.38-1.21-0.75-1.73
		s-0.87-0.97-1.51-1.34c-0.64-0.37-1.46-0.55-2.46-0.55h-17.71c-1.02,0-1.85,0.18-2.48,0.55c-0.63,0.37-1.13,0.81-1.49,1.34
		c-0.37,0.53-0.61,1.1-0.75,1.73c-0.13,0.63-0.2,1.21-0.2,1.73c0,0.53,0.07,1.1,0.2,1.73c0.13,0.63,0.38,1.21,0.75,1.73
		c0.37,0.53,0.86,0.97,1.49,1.34c0.63,0.37,1.45,0.55,2.48,0.55h17.71C183.33,99.34,184.15,99.16,184.79,98.8z"/>
	<path fill="#242424" d="M201.08,90.64c0.37-1.13,0.9-2.15,1.6-3.07c0.7-0.92,1.55-1.67,2.54-2.26c0.99-0.58,2.12-0.88,3.38-0.88
		h25.13c0.58,0,1.08,0.2,1.49,0.61c0.41,0.41,0.61,0.91,0.61,1.49c0,0.59-0.2,1.08-0.61,1.49c-0.41,0.41-0.91,0.61-1.49,0.61h-24.2
		c-0.96,0-1.75,0.16-2.37,0.48c-0.61,0.32-1.1,0.74-1.45,1.25c-0.35,0.51-0.59,1.06-0.72,1.64c-0.13,0.59-0.21,1.14-0.24,1.67v7.76
		c0,0.58-0.2,1.08-0.61,1.49c-0.41,0.41-0.91,0.61-1.49,0.61s-1.08-0.2-1.49-0.61c-0.41-0.41-0.61-0.91-0.61-1.49v-7.45
		C200.53,92.88,200.71,91.77,201.08,90.64z M234.21,92.5c0.41,0.41,0.61,0.91,0.61,1.49c0,0.59-0.21,1.08-0.61,1.49
		c-0.41,0.41-0.91,0.61-1.49,0.61H210c-0.58,0-1.08-0.2-1.49-0.61c-0.41-0.41-0.61-0.91-0.61-1.49c0-0.58,0.2-1.08,0.61-1.49
		c0.41-0.41,0.91-0.61,1.49-0.61h22.71C233.3,91.89,233.8,92.09,234.21,92.5z"/>
	<path fill="#242424" d="M278.1,84.44c0.58,0,1.08,0.2,1.49,0.61c0.41,0.41,0.61,0.91,0.61,1.49c0,0.56-0.19,1.03-0.57,1.43
		c-0.38,0.39-0.83,0.62-1.36,0.68h-8.81c-0.88,0.06-1.6,0.27-2.17,0.64c-0.57,0.37-1.02,0.81-1.34,1.34
		c-0.32,0.53-0.54,1.1-0.66,1.71c-0.12,0.61-0.18,1.17-0.18,1.67v7.45c0,0.58-0.21,1.08-0.61,1.49c-0.41,0.41-0.91,0.61-1.49,0.61
		c-0.58,0-1.08-0.2-1.49-0.61c-0.41-0.41-0.61-0.91-0.61-1.49v-7.45c0-0.91,0.12-1.82,0.35-2.74c0.23-0.92,0.58-1.79,1.05-2.61
		h-14.38c-0.58,0-1.08-0.2-1.49-0.61c-0.41-0.41-0.61-0.91-0.61-1.49c0-0.58,0.2-1.08,0.61-1.49c0.41-0.41,0.91-0.61,1.49-0.61
		H278.1z"/>
</g>
<g>
	<path d="M110.98,44.45h47.97c1.66,0,3-1.34,3-3c0-1.66-1.34-3-3-3h-47.97c-3.96,0-7.53-1.6-10.13-4.2c-2.6-2.6-4.19-6.16-4.2-10.13
		c0-3.96,1.6-7.53,4.2-10.13c2.6-2.6,6.16-4.19,10.13-4.2h47.97c1.66,0,3-1.34,3-3c0-1.66-1.34-3-3-3h-47.97
		c-5.6,0-10.7,2.28-14.37,5.95c-2.85,2.85-4.85,6.56-5.6,10.7H79.99c-0.01,0-0.02,0-0.03,0c-0.99-3.09-3.88-5.33-7.3-5.33
		c-4.23,0-7.66,3.43-7.66,7.66c0,4.23,3.43,7.66,7.66,7.66c2.93,0,5.47-1.64,6.76-4.05c0.19,0.04,0.38,0.06,0.57,0.06h10.8
		c0.54,4.68,2.65,8.89,5.81,12.04C100.27,42.17,105.37,44.45,110.98,44.45z"/>
	<path d="M198.59,33.45c-3.31,0-6.12,2.1-7.19,5.04c-0.15-0.02-0.31-0.05-0.47-0.05h-11.8c-0.54-4.67-2.65-8.89-5.81-12.04
		c-3.67-3.67-8.77-5.95-14.37-5.95h-47.97c-1.66,0-3,1.34-3,3c0,1.66,1.34,3,3,3h47.97c3.96,0,7.53,1.6,10.13,4.2
		c2.6,2.6,4.19,6.16,4.2,10.13c0,3.96-1.6,7.53-4.2,10.13c-2.6,2.6-6.16,4.19-10.13,4.2h-47.97c-1.66,0-3,1.34-3,3
		c0,1.66,1.34,3,3,3h47.97c5.6,0,10.7-2.28,14.37-5.95c2.85-2.85,4.85-6.56,5.6-10.7h12.01c0.25,0,0.49-0.04,0.72-0.1
		c1.22,2.61,3.86,4.43,6.94,4.43c4.23,0,7.66-3.43,7.66-7.66S202.82,33.45,198.59,33.45z"/>
</g>
<g>
</g>
<g>
</g>
<g>
</g>
<g>
</g>
<g>
</g>
<g>
</g>
</svg>
